# xmcd
#
# Track frame offsets: 
#        150
#        15509
#        32308
#        47193
#        59166
#        73302
#        91455
#        103362
#        117183
#        134688
#        151369
#        166375
#        181047
#        197187
#        212378
#        228223
#
# Disc length: 3274 seconds
#
# Revision: 1
# Processed by: cddbd v1.5.2PL0 Copyright (c) Steve Scherf et al.
# Submitted via: ExactAudioCopyFreeDBPlugin 1.0
#
DISCID=e00cc810
DTITLE=สุนารี ราชสีมา - สุนารีซูเปอร์ฮิต 1
DYEAR=2008
DGENRE=Country
TTITLE0=รายงานหัวใจ
TTITLE1=ถึงเวลาจะบอกรัก
TTITLE2=พูดกับภาพ
TTITLE3=สุดท้ายที่กรุงเทพ
TTITLE4=เรารอเขาลืม
TTITLE5=เงามืดในดวงใจ
TTITLE6=รักก็ช้ำเลิกก็ช้ำ
TTITLE7=ชายใจเดียว
TTITLE8=ทางสายใหม่
TTITLE9=ที่รักเรารักกันไม่ได้
TTITLE10=คอยวันเธอใจเดียว
TTITLE11=ลารักจากเดือน
TTITLE12=แฟนฉันไม่ต้องหล่อ
TTITLE13=ห่วงรัก
TTITLE14=เดือนกว่าไม่มาแฟลต
TTITLE15=รักกันต้องให้เกียรติกัน
EXTD=
EXTT0=
EXTT1=
EXTT2=
EXTT3=
EXTT4=
EXTT5=
EXTT6=
EXTT7=
EXTT8=
EXTT9=
EXTT10=
EXTT11=
EXTT12=
EXTT13=
EXTT14=
EXTT15=
PLAYORDER=
